# xmcd
#
# Track frame offsets:
#	150
#	19507
#	48875
#	77395
#	99985
#	144549
#	169548
#	193785
#	259268
#	267322
#	273725
#	281951
#	296029
#	298049
#
# Disc length: 4260 seconds
#
# Revision: 0
# Processed by: cddbd v1.5.2PL0 Copyright (c) Steve Scherf et al.
# Submitted via: EasyCDDAExtractor 9.0.0.1
#
DISCID=d310a20e
DTITLE=Black Sabbath - Scandinavium Gothenburg 11-01-74
DYEAR=1974
DGENRE=Hard Rock
TTITLE0=Tomorrow's Dream
TTITLE1=Sweet Leaf
TTITLE2=Killing Yourself To Live
TTITLE3=Snowblind
TTITLE4=War Pigs
TTITLE5=Cornucopia
TTITLE6=Sabbra Cadabra
TTITLE7=Jam - Guitar Solo - Sometimes I'm Happy - Drum Solo
TTITLE8=Supernaut
TTITLE9=Drum Solo II
TTITLE10=Guitar Solo II
TTITLE11=Sabbra Cadabra Reprise
TTITLE12=Embryo
TTITLE13=Children Of The Grave
EXTD=
EXTT0=
EXTT1=
EXTT2=
EXTT3=
EXTT4=
EXTT5=
EXTT6=
EXTT7=
EXTT8=
EXTT9=
EXTT10=
EXTT11=
EXTT12=
EXTT13=
PLAYORDER=
